<?xml version="1.0" encoding="UTF-8"?>
<svg id="Layer_1" data-name="Layer 1" xmlns="http://www.w3.org/2000/svg" xmlns:xlink="http://www.w3.org/1999/xlink" viewBox="0 0 55.94 39.27">
  <defs>
    <style>
      .cls-1 {
        fill: #cce1f4;
      }

      .cls-2, .cls-3 {
        opacity: .6;
      }

      .cls-2, .cls-4, .cls-5, .cls-6, .cls-7 {
        fill: none;
      }

      .cls-8, .cls-3, .cls-9 {
        fill: #fff;
      }

      .cls-10 {
        fill: #b2b2b2;
      }

      .cls-11, .cls-3, .cls-12, .cls-13, .cls-9 {
        isolation: isolate;
      }

      .cls-11, .cls-6, .cls-12, .cls-9 {
        opacity: .35;
      }

      .cls-14, .cls-12, .cls-13 {
        fill: #1a1a5a;
      }

      .cls-15 {
        fill: #fec212;
      }

      .cls-16 {
        fill: #3dbded;
      }

      .cls-17 {
        fill: #575b5a;
      }

      .cls-18 {
        fill: #ed2e7a;
      }

      .cls-4, .cls-13 {
        opacity: .3;
      }

      .cls-7 {
        clip-path: url(#clippath);
      }
    </style>
    <clipPath id="clippath">
      <rect class="cls-5" y="0" width="55.94" height="39.27"/>
    </clipPath>
  </defs>
  <g class="cls-7">
    <g id="Frame">
      <g id="Group">
        <g id="Group_2" data-name="Group 2" class="cls-4">
          <g id="Group_3" data-name="Group 3" class="cls-4">
            <g id="Group_4" data-name="Group 4" class="cls-4">
              <path id="Vector" class="cls-13" d="m55.94,32.27c0,1.83-7.39,3.39-17.83,4.01-2.27,1.73-8.88,2.99-16.68,2.99-9.67,0-17.51-1.93-17.51-4.3,0-.16.04-.32.1-.47-2.55-.65-4.02-1.41-4.02-2.22,0-2.38,12.52-4.3,27.97-4.3s27.97,1.93,27.97,4.3Z"/>
            </g>
          </g>
        </g>
        <g id="Group_5" data-name="Group 5">
          <g id="Group_6" data-name="Group 6">
            <g id="Group_7" data-name="Group 7">
              <g id="Group_8" data-name="Group 8">
                <path id="Vector_2" data-name="Vector 2" class="cls-8" d="m53.99,30.87c-.39-.02-1.94.69-2.03-.23-.08-.92-.24-5.38-2.04-5.73-1.8-.35-2.47.23-3.17,2.33-.27.79-.35,1.69-.38,2.49-.05,1.34.05,2.44-.3,2.5-.56.09-2.11.22-2.11.22,0,0-.89.93-.98-.64-.03-.48-.07-1.41.01-2.52.19-2.48,1-5.88,4-7.35,4.35-2.13,6.71,4.17,6.75,5,.05.83.62,3.93.23,3.92Z"/>
              </g>
            </g>
          </g>
          <g id="Group_9" data-name="Group 9" class="cls-4">
            <g id="Group_10" data-name="Group 10" class="cls-4">
              <g id="Group_11" data-name="Group 11" class="cls-4">
                <path id="Vector_3" data-name="Vector 3" class="cls-13" d="m46.13,29.56c-.05,1.34.29,2.63-.06,2.69-.56.09-2.11.22-2.11.22,0,0-.89.93-.98-.64-.03-.48.16-1.6.25-2.72.14.41.27,1.62,1.53,1.58.7-.02,1.13-.65,1.37-1.13Z"/>
              </g>
            </g>
          </g>
          <g id="Group_12" data-name="Group 12" class="cls-4">
            <g id="Group_13" data-name="Group 13" class="cls-4">
              <g id="Group_14" data-name="Group 14" class="cls-4">
                <path id="Vector_4" data-name="Vector 4" class="cls-13" d="m53.92,28.2c-.03,1.34.21,2.63-.04,2.69-.4.09-1.51.22-1.51.22,0,0-.64.93-.7-.64-.02-.48.12-1.6.18-2.71.1.41.19,1.62,1.1,1.58.5-.02.81-.65.98-1.13Z"/>
              </g>
            </g>
          </g>
          <g id="Group_15" data-name="Group 15">
            <g id="Group_16" data-name="Group 16">
              <g id="Group_17" data-name="Group 17">
                <path id="Vector_5" data-name="Vector 5" class="cls-10" d="m46.38,31.03s-.23-3.92,1.07-5.4c1.3-1.48,2.38-.78,2.97-.37.58.42,1.12,2.25,1.31,2.97.19.72.55,2.93-.27,2.95-.82.03-5.07-.16-5.07-.16Z"/>
              </g>
            </g>
          </g>
          <g id="Group_18" data-name="Group 18">
            <g id="Group_19" data-name="Group 19">
              <g id="Group_20" data-name="Group 20">
                <path id="Vector_6" data-name="Vector 6" class="cls-8" d="m47.17,21.91s-3.43.77-4.08,6.97c-.1.9-.13,1.92-.09,3.07,0,0,.07.79-.48.79s-11.5.06-11.5.06l-1.07-5.84,3.11-2.61,5.93-4.16,3.49,1.23,1,.35-.8.05,4.49.1Z"/>
              </g>
            </g>
          </g>
          <g id="Group_21" data-name="Group 21" class="cls-4">
            <g id="Group_22" data-name="Group 22" class="cls-4">
              <g id="Group_23" data-name="Group 23" class="cls-4">
                <path id="Vector_7" data-name="Vector 7" class="cls-13" d="m43,31.95s.07.79-.48.79-11.5.06-11.5.06l-1.07-5.84,3.11-2.61,5.93-4.16,3.49,1.23-.48.35s-3.01.95-4.1,5.2c-1.09,4.24,2.23,3.43,3.3,3.43.42,0,1.53-.52,1.89-1.51-.1.9-.13,1.92-.09,3.07Z"/>
              </g>
            </g>
          </g>
          <g id="Group_24" data-name="Group 24">
            <g id="Group_25" data-name="Group 25">
              <g id="Group_26" data-name="Group 26">
                <path id="Vector_8" data-name="Vector 8" class="cls-1" d="m44.28,21.61l-4.88.36-2.54,2.21-.94,2.99-.38,5.69c-1.66,0-5.56,0-7.3,0-1.7,0-3.42,0-5.13-.01-1.74,0-3.46-.01-5.13-.02-1.79-.01-3.51-.02-5.13-.03-1.89-.01-3.62-.03-5.13-.04-.21,0-.42,0-.62,0-1.47-.01-2.7-.02-3.6-.04-.94-.01-1.69-.77-1.69-1.71v-8.3c0-.07,0-.15,0-.22.02-1.77.26-3.49.71-5.13.5-1.82,1.24-3.54,2.19-5.13.85-1.41,1.86-2.71,3.01-3.88.43-.44.88-.86,1.35-1.25,1.16-.99,2.43-1.86,3.78-2.59,1.59-.86,3.32-1.52,5.13-1.95,1.63-.39,3.33-.6,5.08-.6h.05c1.77,0,3.49.22,5.13.62,1.81.44,3.53,1.11,5.13,1.98,1.32.72,2.55,1.57,3.68,2.53.5.43.99.88,1.45,1.36,1.11,1.14,2.08,2.41,2.9,3.77.95,1.59,1.7,3.31,2.19,5.13.37,1.37.61,2.8.68,4.26Z"/>
              </g>
            </g>
          </g>
          <g id="Group_27" data-name="Group 27" class="cls-4">
            <g id="Group_28" data-name="Group 28" class="cls-4">
              <g id="Group_29" data-name="Group 29" class="cls-4">
                <path id="Vector_9" data-name="Vector 9" class="cls-13" d="m35.55,32.86c-1.66,0-5.56,0-7.3,0-1.7,0-3.42,0-5.13-.01-1.74,0-3.46-.01-5.13-.02-1.79-.01-3.51-.02-5.13-.03-1.89-.01-3.62-.03-5.13-.04-.21,0-.42,0-.62,0-1.47-.01-2.7-.02-3.6-.04-.94-.01-1.69-.77-1.69-1.71v-7.81c.93,1.48,2.88,3.31,6.82,3.31h19.47c2.49,0,4.86-1.01,6.65-2.74,1.21-1.17,3.16-2.27,6.24-2.27.36,0-3.27,1-3.92,2.62-1.37,3.37-1.53,8.77-1.53,8.77Z"/>
              </g>
            </g>
          </g>
          <g id="Group_30" data-name="Group 30">
            <g id="Group_31" data-name="Group 31">
              <g id="Group_32" data-name="Group 32">
                <path id="Vector_10" data-name="Vector 10" class="cls-14" d="m13.26,33.04c-.13,0-.27,0-.4,0-2.03-.01-3.7-.03-5.13-.04-.1,0-.2,0-.3,0-.11,0-.22,0-.33,0-1.2-.01-2.38-.02-3.6-.04-.52,0-1.01-.21-1.37-.58-.36-.37-.57-.86-.57-1.38v-8.3c0-.07,0-.15,0-.22.02-1.76.26-3.51.72-5.19.5-1.82,1.24-3.57,2.22-5.19.85-1.42,1.87-2.74,3.04-3.92.43-.44.89-.87,1.36-1.27,1.17-1,2.46-1.88,3.83-2.61,1.63-.88,3.38-1.54,5.19-1.97,1.67-.4,3.4-.6,5.14-.6h.05c1.76,0,3.5.22,5.19.63,1.81.44,3.55,1.12,5.19,2,1.33.72,2.58,1.58,3.72,2.56.51.44,1,.9,1.46,1.37,1.12,1.16,2.11,2.44,2.94,3.82.98,1.63,1.72,3.37,2.22,5.19.38,1.4.61,2.85.69,4.31l-.49.03c-.08-1.42-.3-2.84-.68-4.2-.49-1.78-1.21-3.48-2.17-5.07-.81-1.34-1.77-2.6-2.87-3.73-.45-.47-.93-.92-1.43-1.34-1.12-.96-2.34-1.8-3.64-2.5-1.6-.87-3.3-1.52-5.07-1.96-1.65-.4-3.35-.61-5.07-.61h-.05c-1.7,0-3.39.2-5.02.59-1.77.42-3.47,1.07-5.07,1.93-1.33.71-2.59,1.57-3.74,2.56-.46.39-.91.81-1.33,1.24-1.15,1.16-2.15,2.45-2.98,3.83-.95,1.59-1.68,3.29-2.17,5.07-.45,1.65-.69,3.35-.7,5.07,0,.07,0,.14,0,.21v8.3c0,.8.65,1.46,1.45,1.47,1.22.01,2.39.02,3.6.04.11,0,.22,0,.33,0,.1,0,.2,0,.3,0,1.42.01,3.1.03,5.13.04.8,0,1.59,0,2.43-.02.83-.01,1.69-.03,2.59-.02v.49c-.9,0-1.76.01-2.59.02-.7.01-1.37.02-2.04.02Z"/>
              </g>
            </g>
          </g>
          <g id="Group_33" data-name="Group 33">
            <g id="Group_34" data-name="Group 34">
              <g id="Group_35" data-name="Group 35">
                <path id="Vector_11" data-name="Vector 11" class="cls-14" d="m35.3,32.85c-.05-.89-.04-1.94.04-3.1.12-1.72.38-3.12.79-4.26.48-1.34,1.17-2.33,2.09-3.01.81-.6,1.77-.94,2.77-.96h.01c.06,0,.13,0,.19,0v.49c-.07,0-.12,0-.18,0h-.01c-.9.02-1.76.32-2.48.86-1.58,1.18-2.44,3.38-2.69,6.92-.08,1.14-.1,2.16-.04,3.04l-.49.03Z"/>
              </g>
            </g>
          </g>
          <g id="Group_36" data-name="Group 36">
            <g id="Group_37" data-name="Group 37">
              <g id="Group_38" data-name="Group 38">
                <path id="Vector_12" data-name="Vector 12" class="cls-14" d="m38.32,28.9l-.49-.05c.17-1.58.47-2.86.93-3.91l.45.2c-.44,1-.73,2.23-.89,3.76Z"/>
              </g>
            </g>
          </g>
          <g id="Group_39" data-name="Group 39">
            <g id="Group_40" data-name="Group 40">
              <g id="Group_41" data-name="Group 41">
                <path id="Vector_13" data-name="Vector 13" class="cls-14" d="m40.11,32.85c-.05-.89-.04-1.93.04-3.1.02-.31.05-.61.08-.9l.49.05c-.03.29-.06.58-.08.89-.08,1.14-.09,2.17-.04,3.04l-.49.03Z"/>
              </g>
            </g>
          </g>
          <g id="Group_42" data-name="Group 42">
            <g id="Group_43" data-name="Group 43">
              <g id="Group_44" data-name="Group 44">
                <path id="Vector_14" data-name="Vector 14" class="cls-14" d="m41.62,25.14l-.45-.2c.49-1.12,1-1.85,1.7-2.46.76-.65,1.52-.95,2.46-.97v.49c-.83.02-1.47.27-2.14.85-.65.56-1.12,1.24-1.57,2.28Z"/>
              </g>
            </g>
          </g>
          <g id="Group_45" data-name="Group 45">
            <g id="Group_46" data-name="Group 46">
              <g id="Group_47" data-name="Group 47">
                <path id="Vector_15" data-name="Vector 15" class="cls-14" d="m48.58,21.51h-7.58v.49h7.58v-.49Z"/>
              </g>
            </g>
          </g>
          <g id="Group_48" data-name="Group 48">
            <g id="Group_49" data-name="Group 49">
              <g id="Group_50" data-name="Group 50">
                <g id="Group_51" data-name="Group 51">
                  <path id="Vector_16" data-name="Vector 16" class="cls-14" d="m23.12,1.91h-.05v.09h.05v-.09Z"/>
                </g>
              </g>
            </g>
            <g id="Group_52" data-name="Group 52">
              <g id="Group_53" data-name="Group 53">
                <g id="Group_54" data-name="Group 54">
                  <path id="Vector_17" data-name="Vector 17" class="cls-14" d="m37.05,7.05H9.07v.09h27.98v-.09Z"/>
                </g>
              </g>
            </g>
            <g id="Group_55" data-name="Group 55">
              <g id="Group_56" data-name="Group 56">
                <g id="Group_57" data-name="Group 57">
                  <path id="Vector_18" data-name="Vector 18" class="cls-14" d="m41.4,12.18H4.72v.09h36.68v-.09Z"/>
                </g>
              </g>
            </g>
            <g id="Group_58" data-name="Group 58">
              <g id="Group_59" data-name="Group 59">
                <g id="Group_60" data-name="Group 60">
                  <path id="Vector_19" data-name="Vector 19" class="cls-14" d="m43.6,17.31H2.53v.09h41.07v-.09Z"/>
                </g>
              </g>
            </g>
            <g id="Group_61" data-name="Group 61">
              <g id="Group_62" data-name="Group 62">
                <g id="Group_63" data-name="Group 63">
                  <path id="Vector_20" data-name="Vector 20" class="cls-14" d="m38.5,22.44H1.82v.09h36.68v-.09Z"/>
                </g>
              </g>
            </g>
            <g id="Group_64" data-name="Group 64">
              <g id="Group_65" data-name="Group 65">
                <g id="Group_66" data-name="Group 66">
                  <path id="Vector_21" data-name="Vector 21" class="cls-14" d="m35.85,27.57H1.82v.09h34.03v-.09Z"/>
                </g>
              </g>
            </g>
          </g>
          <g id="Group_67" data-name="Group 67">
            <g id="Group_68" data-name="Group 68">
              <g id="Group_69" data-name="Group 69">
                <path id="Vector_22" data-name="Vector 22" class="cls-14" d="m37.05,6.84H9.07v.49h27.98v-.49Z"/>
              </g>
            </g>
          </g>
          <g id="Group_70" data-name="Group 70">
            <g id="Group_71" data-name="Group 71">
              <g id="Group_72" data-name="Group 72">
                <path id="Vector_23" data-name="Vector 23" class="cls-14" d="m41.4,11.97H4.72v.49h36.68v-.49Z"/>
              </g>
            </g>
          </g>
          <g id="Group_73" data-name="Group 73">
            <g id="Group_74" data-name="Group 74">
              <g id="Group_75" data-name="Group 75">
                <path id="Vector_24" data-name="Vector 24" class="cls-14" d="m43.6,17.1H2.53v.49h41.07v-.49Z"/>
              </g>
            </g>
          </g>
          <g id="Group_76" data-name="Group 76">
            <g id="Group_77" data-name="Group 77">
              <g id="Group_78" data-name="Group 78">
                <path id="Vector_25" data-name="Vector 25" class="cls-14" d="m38.5,22.23H1.82v.49h36.68v-.49Z"/>
              </g>
            </g>
          </g>
          <g id="Group_79" data-name="Group 79">
            <g id="Group_80" data-name="Group 80">
              <g id="Group_81" data-name="Group 81">
                <path id="Vector_26" data-name="Vector 26" class="cls-14" d="m35.85,27.37H1.82v.49h34.03v-.49Z"/>
              </g>
            </g>
          </g>
          <g id="Group_82" data-name="Group 82">
            <g id="Group_83" data-name="Group 83">
              <g id="Group_84" data-name="Group 84">
                <path id="Vector_27" data-name="Vector 27" class="cls-14" d="m38.5,32.5H7.11v.49h31.39v-.49Z"/>
              </g>
            </g>
          </g>
          <g id="Group_85" data-name="Group 85">
            <g id="Group_86" data-name="Group 86">
              <g id="Group_87" data-name="Group 87">
                <g id="Group_88" data-name="Group 88">
                  <path id="Vector_28" data-name="Vector 28" class="cls-14" d="m38.75,12.22h-.49v5.13h.49v-5.13Z"/>
                </g>
              </g>
            </g>
            <g id="Group_89" data-name="Group 89">
              <g id="Group_90" data-name="Group 90">
                <g id="Group_91" data-name="Group 91">
                  <path id="Vector_29" data-name="Vector 29" class="cls-14" d="m33.62,17.35h-.49v5.13h.49v-5.13Z"/>
                </g>
              </g>
            </g>
            <g id="Group_92" data-name="Group 92">
              <g id="Group_93" data-name="Group 93">
                <g id="Group_94" data-name="Group 94">
                  <path id="Vector_30" data-name="Vector 30" class="cls-14" d="m33.62,27.61h-.49v5.24h.49v-5.24Z"/>
                </g>
              </g>
            </g>
            <g id="Group_95" data-name="Group 95">
              <g id="Group_96" data-name="Group 96">
                <g id="Group_97" data-name="Group 97">
                  <path id="Vector_31" data-name="Vector 31" class="cls-14" d="m33.62,7.09h-.49v5.13h.49v-5.13Z"/>
                </g>
              </g>
            </g>
            <g id="Group_98" data-name="Group 98">
              <g id="Group_99" data-name="Group 99">
                <g id="Group_100" data-name="Group 100">
                  <path id="Vector_32" data-name="Vector 32" class="cls-14" d="m28.49,12.22h-.49v5.13h.49v-5.13Z"/>
                </g>
              </g>
            </g>
            <g id="Group_101" data-name="Group 101">
              <g id="Group_102" data-name="Group 102">
                <g id="Group_103" data-name="Group 103">
                  <path id="Vector_33" data-name="Vector 33" class="cls-14" d="m28.49,32.74h-.49v.12h.49v-.12Z"/>
                </g>
              </g>
            </g>
            <g id="Group_104" data-name="Group 104">
              <g id="Group_105" data-name="Group 105">
                <g id="Group_106" data-name="Group 106">
                  <path id="Vector_34" data-name="Vector 34" class="cls-14" d="m28.49,22.48h-.49v5.13h.49v-5.13Z"/>
                </g>
              </g>
            </g>
            <g id="Group_107" data-name="Group 107">
              <g id="Group_108" data-name="Group 108">
                <g id="Group_109" data-name="Group 109">
                  <path id="Vector_35" data-name="Vector 35" class="cls-14" d="m28.49,2.58h-.49v4.51h.49V2.58Z"/>
                </g>
              </g>
            </g>
            <g id="Group_110" data-name="Group 110">
              <g id="Group_111" data-name="Group 111">
                <g id="Group_112" data-name="Group 112">
                  <path id="Vector_36" data-name="Vector 36" class="cls-14" d="m23.36,17.35h-.49v5.13h.49v-5.13Z"/>
                </g>
              </g>
            </g>
            <g id="Group_113" data-name="Group 113">
              <g id="Group_114" data-name="Group 114">
                <g id="Group_115" data-name="Group 115">
                  <path id="Vector_37" data-name="Vector 37" class="cls-14" d="m23.36,27.61h-.49v5.24h.49v-5.24Z"/>
                </g>
              </g>
            </g>
            <g id="Group_116" data-name="Group 116">
              <g id="Group_117" data-name="Group 117">
                <g id="Group_118" data-name="Group 118">
                  <path id="Vector_38" data-name="Vector 38" class="cls-14" d="m23.36,7.09h-.49v5.13h.49v-5.13Z"/>
                </g>
              </g>
            </g>
            <g id="Group_119" data-name="Group 119">
              <g id="Group_120" data-name="Group 120">
                <g id="Group_121" data-name="Group 121">
                  <path id="Vector_39" data-name="Vector 39" class="cls-14" d="m18.23,2.55h-.49v4.53h.49V2.55Z"/>
                </g>
              </g>
            </g>
            <g id="Group_122" data-name="Group 122">
              <g id="Group_123" data-name="Group 123">
                <g id="Group_124" data-name="Group 124">
                  <path id="Vector_40" data-name="Vector 40" class="cls-14" d="m18.23,22.48h-.49v5.13h.49v-5.13Z"/>
                </g>
              </g>
            </g>
            <g id="Group_125" data-name="Group 125">
              <g id="Group_126" data-name="Group 126">
                <g id="Group_127" data-name="Group 127">
                  <path id="Vector_41" data-name="Vector 41" class="cls-14" d="m18.23,32.74h-.49v.08h.49v-.08Z"/>
                </g>
              </g>
            </g>
            <g id="Group_128" data-name="Group 128">
              <g id="Group_129" data-name="Group 129">
                <g id="Group_130" data-name="Group 130">
                  <path id="Vector_42" data-name="Vector 42" class="cls-14" d="m18.23,12.22h-.49v5.13h.49v-5.13Z"/>
                </g>
              </g>
            </g>
            <g id="Group_131" data-name="Group 131">
              <g id="Group_132" data-name="Group 132">
                <g id="Group_133" data-name="Group 133">
                  <path id="Vector_43" data-name="Vector 43" class="cls-14" d="m13.1,7.09h-.49v5.13h.49v-5.13Z"/>
                </g>
              </g>
            </g>
            <g id="Group_134" data-name="Group 134">
              <g id="Group_135" data-name="Group 135">
                <g id="Group_136" data-name="Group 136">
                  <path id="Vector_44" data-name="Vector 44" class="cls-14" d="m13.1,27.61h-.49v5.18h.49v-5.18Z"/>
                </g>
              </g>
            </g>
            <g id="Group_137" data-name="Group 137">
              <g id="Group_138" data-name="Group 138">
                <g id="Group_139" data-name="Group 139">
                  <path id="Vector_45" data-name="Vector 45" class="cls-14" d="m13.1,17.35h-.49v5.13h.49v-5.13Z"/>
                </g>
              </g>
            </g>
            <g id="Group_140" data-name="Group 140">
              <g id="Group_141" data-name="Group 141">
                <g id="Group_142" data-name="Group 142">
                  <path id="Vector_46" data-name="Vector 46" class="cls-14" d="m7.98,32.74h-.49s.49,0,.49,0h0Z"/>
                </g>
              </g>
            </g>
            <g id="Group_143" data-name="Group 143">
              <g id="Group_144" data-name="Group 144">
                <g id="Group_145" data-name="Group 145">
                  <path id="Vector_47" data-name="Vector 47" class="cls-14" d="m7.98,22.48h-.49v5.13h.49v-5.13Z"/>
                </g>
              </g>
            </g>
            <g id="Group_146" data-name="Group 146">
              <g id="Group_147" data-name="Group 147">
                <g id="Group_148" data-name="Group 148">
                  <path id="Vector_48" data-name="Vector 48" class="cls-14" d="m7.98,12.22h-.49v5.13h.49v-5.13Z"/>
                </g>
              </g>
            </g>
          </g>
          <g id="Group_149" data-name="Group 149">
            <g id="Group_150" data-name="Group 150">
              <g id="Group_151" data-name="Group 151">
                <path id="Vector_49" data-name="Vector 49" class="cls-14" d="m44.05,24.79h-7.47v.49h7.47v-.49Z"/>
              </g>
            </g>
          </g>
          <g id="Group_152" data-name="Group 152">
            <g id="Group_153" data-name="Group 153">
              <g id="Group_154" data-name="Group 154">
                <path id="Vector_50" data-name="Vector 50" class="cls-14" d="m43.14,28.63h-7.47v.49h7.47v-.49Z"/>
              </g>
            </g>
          </g>
          <g id="Group_155" data-name="Group 155">
            <g id="Group_156" data-name="Group 156">
              <g id="Group_157" data-name="Group 157">
                <path id="Vector_51" data-name="Vector 51" class="cls-14" d="m43.18,28.63l-.08.49,3.23.54.08-.49-3.23-.54Z"/>
              </g>
            </g>
          </g>
          <g id="Group_158" data-name="Group 158">
            <g id="Group_159" data-name="Group 159">
              <g id="Group_160" data-name="Group 160">
                <path id="Vector_52" data-name="Vector 52" class="cls-14" d="m44.17,24.82l-.23.44,3.05,1.58.23-.44-3.05-1.58Z"/>
              </g>
            </g>
          </g>
          <g id="Group_161" data-name="Group 161">
            <g id="Group_162" data-name="Group 162">
              <g id="Group_163" data-name="Group 163">
                <path id="Vector_53" data-name="Vector 53" class="cls-14" d="m43.1,32.99h-4.6v-.49h4.27c-.04-.83-.02-1.77.06-2.81.12-1.71.38-3.09.79-4.23.48-1.33,1.17-2.31,2.09-2.99.84-.62,1.83-.95,2.87-.95s2.03.33,2.87.95c1.76,1.31,2.73,3.73,2.88,7.23.02.56.02.78.01.94,0,.08,0,.14,0,.22v.22s-2.63.35-2.63.35v-.28c0-.3-.05-1.27-.08-1.62-.11-1.1-.28-1.98-.55-2.68-.2-.54-.45-.97-.75-1.28-.35-.37-.76-.58-1.19-.59-.41-.01-.82.16-1.17.49-.03.03-.06.06-.1.1-.3.32-.55.75-.75,1.28-.26.7-.44,1.58-.55,2.68-.03.34-.06.7-.08,1.08-.03.62-.02.83,0,1.16,0,.12.02.26.02.43v.22s-3.45.58-3.45.58Zm5.48-10.99c-.9,0-1.81.29-2.58.86-1.58,1.17-2.44,3.35-2.69,6.86-.07,1.02-.09,1.94-.06,2.75l2.79-.47c0-.07,0-.14-.01-.21-.02-.33-.04-.57,0-1.21.02-.39.05-.76.08-1.11.11-1.15.3-2.07.57-2.81.23-.61.5-1.08.85-1.45.04-.04.08-.08.12-.12.45-.43.98-.64,1.52-.63.56.02,1.09.27,1.53.75.35.37.62.84.85,1.45.28.74.46,1.66.57,2.81.03.29.07.96.08,1.39l1.65-.22s0-.02,0-.03c0-.15.01-.36-.01-.9-.15-3.33-1.05-5.64-2.69-6.85-.78-.57-1.68-.86-2.58-.86Z"/>
              </g>
            </g>
          </g>
          <g id="Group_164" data-name="Group 164">
            <g id="Group_165" data-name="Group 165">
              <g id="Group_166" data-name="Group 166">
                <path id="Vector_54" data-name="Vector 54" class="cls-14" d="m46.26,30.87v.49s5.53.07,5.53.07v-.49s-5.53-.07-5.53-.07Z"/>
              </g>
            </g>
          </g>
          <g id="Group_167" data-name="Group 167">
            <g id="Group_168" data-name="Group 168">
              <g id="Group_169" data-name="Group 169">
                <path id="Vector_55" data-name="Vector 55" class="cls-14" d="m48.98,21.76h-.49v3h.49v-3Z"/>
              </g>
            </g>
          </g>
          <g id="Group_170" data-name="Group 170">
            <g id="Group_171" data-name="Group 171">
              <g id="Group_172" data-name="Group 172">
                <path id="Vector_56" data-name="Vector 56" class="cls-14" d="m52.26,23.67l-1.58,2,.39.3,1.58-2-.39-.3Z"/>
              </g>
            </g>
          </g>
          <g id="Group_173" data-name="Group 173">
            <g id="Group_174" data-name="Group 174">
              <g id="Group_175" data-name="Group 175">
                <path id="Vector_57" data-name="Vector 57" class="cls-14" d="m53.85,27.79l-2.08.86.19.46,2.08-.86-.19-.46Z"/>
              </g>
            </g>
          </g>
          <g id="Group_176" data-name="Group 176">
            <g id="Group_177" data-name="Group 177">
              <g id="Group_178" data-name="Group 178">
                <path id="Vector_58" data-name="Vector 58" class="cls-14" d="m51.66,28.63h-5.24v.49h5.24v-.49Z"/>
              </g>
            </g>
          </g>
          <g id="Group_179" data-name="Group 179">
            <g id="Group_180" data-name="Group 180">
              <g id="Group_181" data-name="Group 181">
                <path id="Vector_59" data-name="Vector 59" class="cls-14" d="m50.73,25.59h-3.36v.49h3.36v-.49Z"/>
              </g>
            </g>
          </g>
          <g id="Group_182" data-name="Group 182">
            <g id="Group_183" data-name="Group 183">
              <g id="Group_184" data-name="Group 184">
                <path id="Vector_60" data-name="Vector 60" class="cls-14" d="m50.17,28.87l-.49.02.08,2.24.49-.02-.08-2.24Z"/>
              </g>
            </g>
          </g>
          <g id="Group_185" data-name="Group 185">
            <g id="Group_186" data-name="Group 186">
              <g id="Group_187" data-name="Group 187">
                <path id="Vector_61" data-name="Vector 61" class="cls-14" d="m47.61,28.88h-.49c.02-.91.02-2.45-.11-2.76l.46-.18c.19.49.15,2.53.14,2.94Z"/>
              </g>
            </g>
          </g>
        </g>
        <g id="Group_188" data-name="Group 188">
          <g id="Group_189" data-name="Group 189">
            <g id="Group_190" data-name="Group 190">
              <path id="Vector_62" data-name="Vector 62" class="cls-8" d="m30.58,9.09s1.63,1.94,1.67,3.73c.04,1.79-.43,2.35-.84,2.32-.41-.03-.42-4.06-.59-4.45-.17-.39-.25-1.6-.25-1.6Z"/>
            </g>
          </g>
        </g>
        <g id="Group_191" data-name="Group 191">
          <g id="Group_192" data-name="Group 192">
            <g id="Group_193" data-name="Group 193">
              <path id="Vector_63" data-name="Vector 63" class="cls-14" d="m25.78,4.08h-.05v.49h.05v-.49Z"/>
            </g>
          </g>
        </g>
        <g id="Group_194" data-name="Group 194">
          <g id="Group_195" data-name="Group 195">
            <g id="Group_196" data-name="Group 196">
              <path id="Vector_64" data-name="Vector 64" class="cls-17" d="m32.36,26.71s-.09-.05-.13-.07c-1.79-1.01-3.46-2.66-4.12-4.69,0-.03-.02-.06-.03-.09,0,0,0-.01,0-.02l3.64-1.83.09-.05s.99,1.41,2.41,4.16c.17.33.29.64.36.92.04.14.06.28.07.41.14,1.4-1.06,1.94-2.29,1.27Z"/>
            </g>
          </g>
        </g>
        <g id="Group_197" data-name="Group 197" class="cls-6">
          <g id="Group_198" data-name="Group 198" class="cls-6">
            <g id="Group_199" data-name="Group 199" class="cls-6">
              <path id="Vector_65" data-name="Vector 65" class="cls-9" d="m34.57,25.03c-.3-.22-.81-.68-1.44-1.55-.73-1.01-1.2-2.6-1.42-3.48l.09-.05s.99,1.41,2.41,4.16c.17.33.29.64.36.92Z"/>
            </g>
          </g>
        </g>
        <g id="Group_200" data-name="Group 200" class="cls-6">
          <g id="Group_201" data-name="Group 201" class="cls-6">
            <g id="Group_202" data-name="Group 202" class="cls-6">
              <path id="Vector_66" data-name="Vector 66" class="cls-11" d="m32.36,26.71s-.09-.05-.13-.07c-1.79-1.01-3.46-2.66-4.12-4.69,0-.03-.02-.06-.03-.09.51.67,2.99,3.8,4.93,3.99,1.05.11,1.47-.13,1.63-.41.14,1.4-1.06,1.94-2.29,1.27Z"/>
            </g>
          </g>
          <g id="Group_203" data-name="Group 203" class="cls-6">
            <g id="Group_204" data-name="Group 204" class="cls-6">
              <path id="Vector_67" data-name="Vector 67" class="cls-12" d="m33.38,27.04c-.33,0-.69-.1-1.04-.29-.04-.02-.09-.05-.13-.07-.94-.53-1.8-1.21-2.5-1.97-.78-.85-1.33-1.77-1.64-2.74-.01-.04-.02-.06-.03-.09l-.06-.22.14.18c.48.63,2.97,3.78,4.9,3.98,1.07.11,1.45-.15,1.59-.38l.07-.12v.13c.07.62-.12,1.12-.53,1.39-.22.14-.48.21-.76.21Zm-5.18-4.96c.62,1.78,2.09,3.42,4.05,4.52.05.03.09.05.13.07.63.34,1.27.37,1.71.08.36-.24.54-.66.52-1.19-.25.3-.79.41-1.6.33-.83-.08-1.85-.7-3.03-1.83-.78-.75-1.44-1.54-1.78-1.98Z"/>
            </g>
          </g>
        </g>
        <g id="Group_205" data-name="Group 205">
          <g id="Group_206" data-name="Group 206">
            <g id="Group_207" data-name="Group 207">
              <path id="Vector_68" data-name="Vector 68" class="cls-14" d="m33.38,27.24c-.36,0-.76-.1-1.14-.31-.05-.03-.09-.05-.14-.07-.96-.54-1.84-1.23-2.55-2.01-.79-.87-1.36-1.82-1.68-2.82h0s-.02-.08-.03-.11c-.04-.13.04-.27.17-.3.13-.04.27.04.3.17.01.03.02.07.03.1.57,1.79,2.03,3.44,4,4.55h0s.08.05.13.07c.63.34,1.27.34,1.63-.01.44-.43.39-1.27-.12-2.25-1.4-2.7-2.38-4.12-2.39-4.13-.08-.11-.05-.26.06-.34s.26-.05.34.06c.01.01,1.01,1.46,2.42,4.19.32.61.47,1.17.47,1.67,0,.47-.16.87-.45,1.16-.28.27-.65.41-1.07.41Z"/>
            </g>
          </g>
        </g>
        <g id="Group_208" data-name="Group 208">
          <g id="Group_209" data-name="Group 209">
            <g id="Group_210" data-name="Group 210">
              <path id="Vector_69" data-name="Vector 69" class="cls-15" d="m25.45,35.43s1.55,2.38,3.01,1.73c1.45-.65,1.23-1.29,1.76-1.3.53-.01,1.39-.3.93-1.12-.46-.82-1.91-1.32-1.91-1.32,0,0-3.36.58-3.78,2.01Z"/>
            </g>
          </g>
        </g>
        <g id="Group_211" data-name="Group 211">
          <g id="Group_212" data-name="Group 212">
            <g id="Group_213" data-name="Group 213">
              <path id="Vector_70" data-name="Vector 70" class="cls-14" d="m27.93,37.51c-1.39,0-2.63-1.86-2.69-1.95l-.06-.1.03-.11c.2-.67.94-1.25,2.2-1.7.9-.33,1.74-.47,1.77-.48h.06s.06.01.06.01c.06.02,1.54.54,2.05,1.43.24.43.17.74.07.92-.22.39-.79.55-1.2.56-.1,0-.12.02-.27.21-.2.27-.51.67-1.4,1.07-.21.09-.42.13-.63.13Zm-2.21-2.12c.3.42,1.54,2.03,2.63,1.54.78-.35,1.03-.68,1.21-.92.15-.19.3-.4.65-.4.31,0,.68-.12.79-.31.06-.11.04-.25-.07-.44-.33-.58-1.3-1.03-1.72-1.19-.21.04-.91.18-1.63.45-1.01.37-1.65.81-1.85,1.27Z"/>
            </g>
          </g>
        </g>
        <g id="Group_214" data-name="Group 214" class="cls-4">
          <g id="Group_215" data-name="Group 215" class="cls-4">
            <g id="Group_216" data-name="Group 216" class="cls-4">
              <path id="Vector_71" data-name="Vector 71" class="cls-13" d="m30.8,34.11c-.48.65-1.83,2-4.77,1.72-.17-.21-.26-.36-.26-.36.42-1.43,3.78-2.01,3.78-2.01,0,0,.68.24,1.25.64Z"/>
            </g>
          </g>
        </g>
        <g id="Group_217" data-name="Group 217">
          <g id="Group_218" data-name="Group 218">
            <g id="Group_219" data-name="Group 219">
              <path id="Vector_72" data-name="Vector 72" class="cls-15" d="m18.09,35.43s-1.55,2.38-3.01,1.73c-1.45-.65-1.23-1.29-1.76-1.3-.53-.01-1.39-.3-.93-1.12.46-.82,1.91-1.32,1.91-1.32,0,0,3.36.58,3.78,2.01Z"/>
            </g>
          </g>
        </g>
        <g id="Group_220" data-name="Group 220">
          <g id="Group_221" data-name="Group 221">
            <g id="Group_222" data-name="Group 222">
              <path id="Vector_73" data-name="Vector 73" class="cls-14" d="m15.61,37.51c-.21,0-.42-.04-.63-.13-.89-.4-1.2-.8-1.4-1.07-.14-.19-.17-.21-.27-.21-.41-.01-.98-.16-1.2-.56-.1-.18-.18-.49.07-.92.5-.89,1.98-1.41,2.05-1.43l.06-.02h.06s.87.16,1.77.49c1.26.46,2,1.03,2.2,1.7l.03.11-.06.1c-.06.09-1.3,1.95-2.69,1.95Zm-1.28-3.84c-.27.1-1.36.55-1.72,1.19-.1.19-.13.33-.07.44.11.19.48.3.79.31.35,0,.5.21.65.4.18.24.43.57,1.21.92,1.09.49,2.33-1.12,2.63-1.54-.2-.47-.84-.9-1.85-1.27-.72-.26-1.42-.41-1.63-.45Z"/>
            </g>
          </g>
        </g>
        <g id="Group_223" data-name="Group 223" class="cls-4">
          <g id="Group_224" data-name="Group 224" class="cls-4">
            <g id="Group_225" data-name="Group 225" class="cls-4">
              <path id="Vector_74" data-name="Vector 74" class="cls-13" d="m12.74,34.11c.48.65,1.83,2,4.77,1.72.17-.21.26-.36.26-.36-.42-1.43-3.78-2.01-3.78-2.01,0,0-.68.24-1.25.64Z"/>
            </g>
          </g>
        </g>
        <g id="Group_226" data-name="Group 226">
          <g id="Group_227" data-name="Group 227">
            <g id="Group_228" data-name="Group 228">
              <path id="Vector_75" data-name="Vector 75" class="cls-17" d="m32.92,26.75v.05c0,1.17-.17,2.28-.55,3.3-.73,1.73-3.08,5-5.9,5.59-1.34.28-2.96.43-4.93.43-4.89,0-7.3-2.09-9.1-3.61-.03-.02-.05-.05-.08-.07-.02-.02-.04-.03-.06-.05-1.01-.93-1.47-2.64-1.63-4.49-.02-.17-.03-.34-.04-.51,0-.07,0-.17,0-.27,0-.1,0-.2,0-.27v-.05c.06-.93.16-1.81.33-2.72.25-1.34.66-2.73,1.31-4.4.49-1.25.87-2.71.78-4.02-.04-.49-.05-1-.05-1.51s.02-.99.05-1.47c.05-.67.14-1.31.27-1.93.12-.57.28-1.11.49-1.62h0s.04-.08.06-.12c.91-1.71,2.43-3.05,4.78-3.77h0c.89-.27,1.9-.46,3.05-.54l-.27-.02c-.19-.51-1.1-1.41-.29-2.16.66-.61,1.5.24,1.7.91.02.07.12.09.17.03.02-.03.05-.06.07-.09.34-.41,1.04-1.14,1.62-.9.81.33.39,1.57-.03,2.27.19.02.38.05.56.08.01,0,.03,0,.04,0,.03,0,.07.01.1.02,0,0,.01,0,.02,0,.05.01.1.02.15.03.01,0,.02,0,.04,0,.05.01.1.02.15.03.01,0,.02,0,.04,0,.05.01.1.02.15.04.01,0,.02,0,.04,0,.04.01.08.02.12.03.02,0,.04.01.07.02.04.01.09.02.13.04.01,0,.02,0,.03,0,.04.01.08.02.12.04.03,0,.06.02.1.03.02,0,.03.01.05.02.04.01.08.02.11.04.02,0,.04.01.06.02.03.01.06.02.09.03.03,0,.05.02.08.03.02,0,.04.02.06.02.03.01.06.02.09.04.03.01.07.03.1.04.02,0,.03.01.05.02.03.01.06.03.09.04.03.01.06.02.08.04.02,0,.03.01.05.02.03.01.06.03.09.04.03.01.05.02.08.04.02.01.05.02.07.04.04.02.08.04.12.07.03.02.07.04.1.06.01,0,.03.02.04.02.02.01.04.02.07.04.03.02.07.04.1.06,0,0,0,0,0,0,.04.03.09.05.13.08,0,0,0,0,0,0,.04.02.07.05.1.07.01,0,.03.02.04.03.03.02.06.05.1.07,0,0,0,0,0,0,.08.06.15.12.22.18.01.01.03.02.05.04.02.02.05.04.07.06.01.01.02.02.04.03.03.02.05.05.08.07,0,0,0,0,.01.01.03.03.06.06.09.09,0,0,.02.02.03.03.02.02.05.05.07.07.04.04.09.09.13.14.06.07.12.13.17.2,0,0,0,0,.01.01.03.03.06.07.08.1.03.04.06.08.09.12.03.04.06.08.09.12,0,0,0,0,0,.01.02.03.05.07.07.1.05.08.1.15.15.23.02.03.04.06.06.1.07.11.13.21.19.33.02.04.04.08.06.12.12.23.23.48.33.73.01.03.03.07.04.1.05.15.1.29.15.44.02.05.03.1.05.15.01.05.03.09.04.13,0,.03.02.06.02.09,0,.03.02.05.02.08.02.07.04.14.05.21.02.08.04.17.06.25,0,.01,0,.02,0,.04,0,.04.02.08.03.13.01.05.02.11.03.16.04.22.08.44.11.67.01.09.02.18.03.27.02.14.03.27.05.41.06.64.09,1.31.09,2,0,.31,0,.61-.02.92-.06,1.45-.2,3.11.24,4.5.44,1.38,1.09,3.18,1.25,4.94,0,0,0,0,0,.01.07.73.11,1.42.12,2v.04c0,.09,0,.17,0,.25Z"/>
            </g>
          </g>
        </g>
        <g id="Group_229" data-name="Group 229">
          <g id="Group_230" data-name="Group 230">
            <g id="Group_231" data-name="Group 231">
              <path id="Vector_76" data-name="Vector 76" class="cls-8" d="m31.8,28.45c-.5,2.22-2.51,6.48-8.49,6.48-7.4,0-9.73-3.63-9.9-6.96-.13-2.61,2.08-4.6,2.36-6.56.27-1.95.44-1.79-.18-5.97-.54-3.66.73-8.22,5.09-7.6,2.84.4,2.32,6.81,2.32,6.81.22-.14.85-.55,1.12-.55.24,0,.92.43,1.12.55,0,0-1.39-6.32,1.83-6.32,2.87,0,3.1,3.43,2.75,7.11-.32,3.36.72,5.61,1.02,6.46,1.07,2.98,1.26,5.19.96,6.54Z"/>
            </g>
          </g>
        </g>
        <g id="Group_232" data-name="Group 232" class="cls-4">
          <g id="Group_233" data-name="Group 233" class="cls-4">
            <g id="Group_234" data-name="Group 234" class="cls-4">
              <path id="Vector_77" data-name="Vector 77" class="cls-13" d="m32.92,26.75v.05c0,1.17-.17,2.28-.55,3.3-.73,1.73-3.21,4.79-6.04,5.38-1.34.28-2.96.42-4.93.42-4.89,0-7.16-1.88-8.96-3.39-.03-.02-.05-.05-.08-.07-.02-.02-.04-.03-.05-.05-1.01-.93-1.48-2.64-1.63-4.49-.01-.17-.03-.34-.04-.51,0-.14-.01-.41-.01-.55v-.05c.06-.93.16-1.81.33-2.72.11-.16.18-.25.18-.25,0,0-.3,8.29,6.76,9.71,9.88,2,14.36-2.59,15.03-7.02,0,.08,0,.16,0,.25Z"/>
            </g>
          </g>
        </g>
        <g id="Group_235" data-name="Group 235" class="cls-4">
          <g id="Group_236" data-name="Group 236" class="cls-4">
            <g id="Group_237" data-name="Group 237" class="cls-4">
              <path id="Vector_78" data-name="Vector 78" class="cls-13" d="m30.98,10.47c-3.25.17-13.77.56-17.69.27.12-.57.29-1.11.49-1.62h0s.04-.08.06-.12c.91-1.71,2.43-3.05,4.78-3.77h0c.89-.27,1.9-.46,3.05-.54l-.27-.02c-.19-.51-1.1-1.41-.29-2.16.66-.61,1.5.24,1.7.91.02.07.12.09.17.03.02-.03.05-.06.07-.09.34-.41,1.04-1.14,1.62-.9.81.33.39,1.57-.03,2.27.19.02.38.05.56.08.01,0,.03,0,.04,0,.03,0,.07.01.1.02,0,0,.01,0,.02,0,.05.01.1.02.15.03.01,0,.02,0,.04,0,.05.01.1.02.15.03.01,0,.02,0,.04,0,.05.01.1.02.15.04.01,0,.02,0,.04,0,.04.01.08.02.12.03.02,0,.04.01.07.02.04.01.09.02.13.04.01,0,.02,0,.03,0,.04.01.08.02.12.04.03,0,.06.02.1.03.02,0,.03.01.05.02.04.01.08.02.12.04.02,0,.04.01.06.02.03.01.06.02.09.03.03,0,.05.02.08.03.02,0,.04.02.06.02.03.01.06.02.09.04.03.01.07.03.1.04.02,0,.03.01.05.02.03.01.06.03.09.04.03.01.06.02.08.04.02,0,.03.01.05.02.03.01.06.03.09.04.03.01.05.02.08.04.02.01.05.02.07.04.04.02.08.04.12.07.03.02.07.04.1.06.01,0,.03.02.04.02.02.01.04.02.07.04.03.02.07.04.1.06,0,0,0,0,0,0,.04.03.08.05.13.08,0,0,0,0,0,0,.04.02.07.05.1.07.01,0,.03.02.04.03.03.02.06.05.1.07,0,0,0,0,0,0,.08.06.15.12.22.18.01.01.03.02.05.04.02.02.05.04.07.06.01.01.02.02.04.03.03.02.05.05.08.07,0,0,0,0,.01.01.03.03.06.06.09.09,0,0,.02.02.03.03.02.02.05.05.07.07.04.04.09.09.13.14.06.07.12.13.17.2,0,0,0,0,.01.01.03.03.06.07.08.1.03.04.06.08.09.12.03.04.06.08.09.12,0,0,0,0,0,.01.02.03.05.07.07.1.05.08.1.15.15.23.02.03.04.06.06.1.07.11.13.21.19.33.02.04.04.08.06.12.12.23.23.48.33.73.01.03.03.07.04.1.05.15.1.29.15.44.02.05.03.1.05.15.01.05.03.09.04.13,0,.03.02.06.02.09,0,.03.02.05.02.08.02.07.04.14.05.21.02.08.04.17.06.25,0,.02,0,.03,0,.04Z"/>
            </g>
          </g>
        </g>
        <g id="Group_238" data-name="Group 238" class="cls-6">
          <g id="Group_239" data-name="Group 239" class="cls-6">
            <g id="Group_240" data-name="Group 240" class="cls-6">
              <path id="Vector_79" data-name="Vector 79" class="cls-9" d="m31.23,12.1l-.25,2.03s-.28-5.2-3-7.22c-.56-.41-1.19-.73-1.88-.97.05.07.08.14.07.21-.04.3-.71.47-1.51.38-.8-.1-1.41-.42-1.37-.72.02-.16.23-.29.54-.35-2.63-.27-5.48.33-7.32,1.42-1.78,1.06-2.79,3.81-3.48,5.79.09-1.29.33-2.49.76-3.55h0s.04-.08.06-.12c.98-1.88,2.25-3.18,4.78-3.77h0c.86-.2,1.87-.32,3.06-.35,0,0,1.19.04,1.38.04h0c.4,0,.79-.19,1-.54.33-.53.65-1.2.37-1.35-.5-.27-1.35.67-1.35.67l-.02-.35c.34-.41,1.04-1.14,1.62-.9.81.33.39,1.57-.03,2.27.19.02.38.05.56.08-.42-.06-.29.19-.66.25l.76-.04s.01-.07.04-.19c0,0,.01,0,.02,0,.05,0,.1.02.15.03.01,0,.02,0,.04,0,.05.01.1.02.15.03.01,0,.02,0,.04,0,.05.01.1.02.15.04.01,0,.02,0,.04,0,.04,0,.08.02.12.03.02,0,.04.01.07.02.04.01.08.02.13.04,0,0,.02,0,.03,0,.04.01.08.02.12.04.03,0,.06.02.09.03.02,0,.03.01.05.02.04.01.08.02.11.04.02,0,.04.01.06.02.03,0,.06.02.09.03.03,0,.05.02.08.03.02,0,.04.02.06.02.03.01.06.02.09.04.03.01.07.03.1.04.02,0,.03.01.05.02.03.01.06.03.09.04.03.01.06.02.08.04.02,0,.03.01.05.02.03.01.06.03.09.04.03.01.05.02.08.04.02.01.05.02.07.04.04.02.08.04.12.07.04.02.07.04.1.06.01,0,.03.01.04.02.02.01.04.02.07.04.03.02.07.04.1.06,0,0,0,0,0,0,.04.03.09.05.13.08,0,0,0,0,0,0,.03.02.07.05.1.07.01,0,.03.02.04.03.03.02.06.05.1.07,0,0,0,0,0,0,.07.06.15.12.22.18.01.01.03.02.05.04.02.02.05.04.07.06.01.01.02.02.04.03.03.02.05.05.08.07,0,0,0,0,.01.01.03.03.06.06.09.09,0,0,.02.02.03.03.02.02.05.05.07.07.04.04.09.09.13.14.06.07.12.13.17.2,0,0,0,0,.01.01.03.03.06.07.08.1.03.04.06.08.09.12.03.04.06.08.09.12,0,0,0,0,0,.01.02.03.05.07.07.1.05.08.1.15.15.23.02.03.04.06.06.1.07.11.13.22.19.33.02.04.04.08.06.11.12.23.23.48.33.73.01.03.03.07.04.1.05.15.1.29.15.44.02.05.03.1.05.15.01.04.03.09.04.13,0,.03.02.06.02.09,0,.03.02.05.02.08.02.07.04.14.05.21.02.08.04.17.06.25.01.05.02.11.03.16.01.05.02.11.03.16.04.22.08.44.11.67.01.09.02.18.03.27.02.14.03.28.05.41Z"/>
            </g>
          </g>
          <g id="Group_241" data-name="Group 241" class="cls-6">
            <g id="Group_242" data-name="Group 242" class="cls-6">
              <path id="Vector_80" data-name="Vector 80" class="cls-12" d="m31.03,14.14h-.08s-.07-1.32-.48-2.85c-.37-1.41-1.11-3.3-2.51-4.34-.51-.38-1.1-.69-1.76-.93.02.04.02.09.02.13-.04.33-.72.52-1.55.41-.83-.1-1.45-.44-1.41-.77.02-.14.14-.25.35-.33-2.47-.21-5.22.35-7.06,1.43-1.69,1-2.68,3.5-3.47,5.77l-.11.31.02-.33c.1-1.38.35-2.55.76-3.55h0s0-.01,0-.01h0s.04-.08.06-.11c.54-1.04,1.12-1.79,1.82-2.38.79-.66,1.77-1.12,2.98-1.41h.01c.88-.21,1.89-.32,3.07-.35h0s1.19.04,1.37.04h0c.39,0,.76-.19.96-.52.35-.58.51-1,.46-1.19-.01-.05-.04-.08-.08-.1-.47-.25-1.29.65-1.3.66l-.07.08-.03-.47h.01c.36-.46,1.07-1.17,1.67-.93.22.09.36.24.44.46.17.52-.11,1.29-.41,1.82.18.02.34.04.49.07v.09c-.22-.03-.28.02-.35.09-.02.02-.04.04-.07.06l.48-.02s.02-.09.03-.15v-.04s.05,0,.05,0c0,0,0,0,0,0,0,0,0,0,.01,0,.05,0,.1.02.15.03h.04s.1.03.15.04h0s.02,0,.03,0c.04,0,.09.02.15.04.01,0,.02,0,.04,0,.04,0,.08.02.12.03.02,0,.04.01.07.02.04.01.09.02.13.04,0,0,.01,0,.02,0,0,0,0,0,.01,0,.04.01.08.02.12.04.03,0,.06.02.1.03h0s.03.01.04.02c.04.01.08.03.12.04.02,0,.04.01.06.02.03,0,.05.02.09.03.03.01.06.02.08.03h.01s.03.02.05.02c.03.01.06.02.09.04.03.01.07.03.1.04.02,0,.03.01.05.02.02.01.06.02.09.04.03.01.05.02.08.04.01,0,.03.01.05.02.03.01.06.03.09.04.02.01.05.02.08.04.02.01.05.02.07.04.04.02.08.04.12.07.03.02.07.04.1.06.01,0,.03.01.04.02.03.01.05.03.07.04.03.02.06.04.09.06,0,0,0,0,0,0,.04.02.08.05.12.08,0,0,0,0,.01,0,.03.02.07.05.1.07.01,0,.03.02.04.03.03.02.07.05.1.07h0c.08.06.15.12.22.18.02.01.03.02.05.04.02.02.05.04.07.06.01.01.02.02.04.03.03.02.05.05.08.07h0s0,0,0,0c0,0,0,0,0,0,.03.03.06.06.09.09h0s.01.02.02.03l.02.02s.03.03.05.05c.05.05.09.09.13.14.06.07.12.13.18.2h0s0,.01,0,.01c.03.03.06.07.08.1.03.04.06.08.09.12.03.04.06.08.09.12h0s0,0,0,0c0,0,0,0,0,0,.02.03.05.07.07.1.05.07.1.15.16.23.02.03.04.07.06.1.06.1.12.21.19.33.02.04.04.08.06.12.12.23.23.48.33.73.01.03.03.07.04.1.05.15.11.29.15.44.01.04.02.07.04.11l.02.08s.02.06.03.1c0,.03.02.06.02.09,0,.03.02.06.02.08.02.06.03.13.05.21.02.07.04.15.06.25.01.05.02.11.03.16.01.05.02.11.03.16.04.22.08.44.11.67.01.1.02.19.03.27.02.13.03.26.05.41h0s-.26,2.05-.26,2.05Zm-5.05-8.28l.14.05c.71.25,1.35.58,1.89.98.63.46,1.18,1.13,1.63,1.99.36.69.67,1.49.91,2.4.27,1.02.39,1.94.45,2.45l.2-1.62c-.01-.15-.03-.28-.04-.4,0-.08-.02-.16-.03-.27-.03-.23-.07-.45-.11-.66-.01-.05-.02-.11-.03-.16-.01-.05-.02-.11-.03-.16-.02-.1-.04-.18-.06-.25-.02-.07-.04-.14-.05-.2,0-.03-.01-.05-.02-.08h0s-.02-.06-.02-.09c0-.03-.02-.06-.03-.09l-.02-.08s-.02-.07-.03-.11c-.05-.15-.1-.29-.15-.44-.01-.03-.03-.07-.04-.1-.1-.25-.21-.5-.33-.73-.02-.04-.04-.07-.06-.11-.06-.12-.13-.23-.19-.32-.02-.03-.04-.06-.06-.1-.05-.09-.1-.16-.15-.23-.02-.03-.05-.07-.07-.1,0,0,0,0,0,0,0,0,0,0,0,0-.03-.04-.06-.08-.09-.11-.03-.04-.06-.08-.09-.12-.03-.04-.06-.07-.08-.1h0s0,0,0,0h0c-.05-.07-.11-.14-.17-.2-.04-.04-.08-.09-.13-.14-.02-.02-.03-.03-.05-.05l-.02-.02s-.01-.01-.02-.02h0s-.06-.07-.09-.1c0,0,0,0,0,0,0,0,0,0,0,0-.03-.02-.05-.05-.08-.07h0s-.02-.02-.03-.03c-.02-.02-.05-.04-.07-.06-.02-.01-.03-.03-.05-.04-.07-.06-.14-.12-.22-.17,0,0,0,0,0,0-.03-.02-.06-.05-.09-.07-.01,0-.03-.02-.04-.03-.03-.02-.07-.05-.1-.07h0s0,0,0,0h0s-.08-.06-.12-.08h-.01s-.06-.05-.1-.07h0s-.04-.02-.06-.04h0s-.02-.02-.04-.02h0s-.07-.04-.1-.06c-.04-.02-.08-.05-.12-.07-.02-.01-.05-.03-.07-.04-.03-.01-.05-.03-.08-.04-.03-.02-.06-.03-.09-.04-.02,0-.03-.02-.05-.02-.03-.01-.06-.03-.08-.04-.03-.02-.06-.03-.09-.04-.01,0-.03-.01-.05-.02-.03-.01-.07-.03-.1-.04-.03-.01-.05-.02-.09-.04-.02,0-.03-.01-.05-.02h-.01s-.05-.03-.08-.04h0s-.06-.02-.08-.03h0s-.04-.01-.06-.02c-.04-.01-.07-.03-.11-.04-.01,0-.03,0-.04-.01h0s-.06-.02-.09-.03c-.04-.01-.08-.03-.12-.04,0,0,0,0-.01,0,0,0-.01,0-.02,0-.04-.01-.09-.02-.13-.04-.02,0-.04-.01-.06-.02h0s-.08-.02-.12-.03c-.01,0-.02,0-.03,0-.06-.01-.1-.02-.15-.04-.01,0-.02,0-.03,0h0s-.1-.02-.15-.03h-.04s-.08-.02-.13-.03c-.02.09-.03.15-.03.15v.03s-.8.04-.8.04v-.09c.14-.02.2-.08.25-.13.03-.03.06-.05.09-.08-.08-.01-.16-.02-.25-.03h-.07s.03-.06.03-.06c.31-.52.61-1.3.44-1.8-.06-.19-.19-.33-.39-.41-.54-.22-1.21.45-1.56.88v.24c.23-.22.9-.84,1.35-.61.06.03.1.08.12.15.06.22-.1.65-.47,1.26-.21.35-.61.56-1.03.56h0c-.18,0-1.31-.04-1.38-.04-1.17.03-2.17.14-3.04.35,0,0,0,0,0,0-2.26.53-3.64,1.61-4.75,3.74-.02.03-.04.07-.06.11,0,0,0,0,0,0-.38.92-.62,1.96-.73,3.19.33-.94.73-1.99,1.22-2.93.66-1.25,1.37-2.09,2.17-2.56,1.91-1.13,4.8-1.69,7.35-1.42l.28.03-.27.06c-.3.06-.49.18-.51.32-.03.27.58.58,1.34.68.76.09,1.42-.07,1.46-.34,0-.05-.01-.12-.06-.18l-.1-.12Zm2.19.11s0,0,0,0h0Z"/>
            </g>
          </g>
        </g>
        <g id="Group_243" data-name="Group 243" class="cls-6">
          <g id="Group_244" data-name="Group 244" class="cls-6">
            <g id="Group_245" data-name="Group 245" class="cls-6">
              <path id="Vector_81" data-name="Vector 81" class="cls-9" d="m24.35,5.07h0,.21c-.05,0-.12,0-.2,0Z"/>
            </g>
          </g>
          <g id="Group_246" data-name="Group 246" class="cls-6">
            <g id="Group_247" data-name="Group 247" class="cls-6">
              <path id="Vector_82" data-name="Vector 82" class="cls-12" d="m24.39,5.11h-.05v-.09s.21-.01.21-.01v.09s-.1.01-.16.01Z"/>
            </g>
          </g>
        </g>
        <g id="Group_248" data-name="Group 248" class="cls-6">
          <g id="Group_249" data-name="Group 249" class="cls-6">
            <g id="Group_250" data-name="Group 250" class="cls-6">
              <path id="Vector_83" data-name="Vector 83" class="cls-9" d="m25.35,4.83c-.02.12-.04.19-.04.19l-.76.04c.38-.06.23-.32.7-.24.03,0,.07.01.1.02Z"/>
            </g>
          </g>
          <g id="Group_251" data-name="Group 251" class="cls-6">
            <g id="Group_252" data-name="Group 252" class="cls-6">
              <path id="Vector_84" data-name="Vector 84" class="cls-12" d="m24.55,5.1v-.09c.14-.02.2-.08.25-.13.08-.08.16-.16.45-.11.01,0,.02,0,.03,0,.02,0,.04,0,.07.01h.04s0,.05,0,.05c-.02.12-.04.19-.04.19v.03s-.8.04-.8.04Zm.54-.26c-.13,0-.18.05-.23.1-.02.02-.04.04-.07.06l.48-.02s.01-.06.02-.11c0,0-.01,0-.02,0-.01,0-.02,0-.03,0-.06,0-.11-.01-.15-.01Z"/>
            </g>
          </g>
        </g>
        <g id="Group_253" data-name="Group 253" class="cls-6">
          <g id="Group_254" data-name="Group 254" class="cls-6">
            <g id="Group_255" data-name="Group 255" class="cls-6">
              <path id="Vector_85" data-name="Vector 85" class="cls-9" d="m25.35,4.83c-.02.12-.04.19-.04.19l-.76.04c.38-.06.23-.32.7-.24.03,0,.07.01.1.02Z"/>
            </g>
          </g>
          <g id="Group_256" data-name="Group 256" class="cls-6">
            <g id="Group_257" data-name="Group 257" class="cls-6">
              <path id="Vector_86" data-name="Vector 86" class="cls-12" d="m24.55,5.1v-.09c.14-.02.2-.08.25-.13.08-.08.16-.16.45-.11.01,0,.02,0,.03,0,.02,0,.04,0,.07.01h.04s0,.05,0,.05c-.02.12-.04.19-.04.19v.03s-.8.04-.8.04Zm.54-.26c-.13,0-.18.05-.23.1-.02.02-.04.04-.07.06l.48-.02s.01-.06.02-.11c0,0-.01,0-.02,0-.01,0-.02,0-.03,0-.06,0-.11-.01-.15-.01Z"/>
            </g>
          </g>
        </g>
        <g id="Group_258" data-name="Group 258">
          <g id="Group_259" data-name="Group 259">
            <g id="Group_260" data-name="Group 260">
              <path id="Vector_87" data-name="Vector 87" class="cls-14" d="m22.55,36.15c-1.33,0-2.6-.1-3.78-.28-1.1-.17-2.12-.43-3.03-.76-1.7-.61-3-1.45-3.78-2.44-.6-.76-1.11-1.94-1.37-3.17-.06-.29-.12-.83-.16-1.59-.03-.55-.05-1.01-.05-1.06v-.02s0-.03,0-.03c0,0,0-.02,0-.03.16-2.48.64-4.56,1.66-7.18.58-1.49.84-2.84.76-3.91-.04-.48-.05-.99-.05-1.53,0-2.05.27-3.71.82-5.07h0s.02-.05.02-.05v-.04s.02,0,.02,0c.3-.65.69-1.25,1.16-1.79.49-.55,1.07-1.03,1.72-1.42,1.27-.76,2.8-1.21,4.55-1.34-.01-.02-.02-.03-.03-.05-.16-.27-.35-.58-.41-.93-.08-.43.04-.81.38-1.13.27-.25.59-.33.93-.24.47.13.87.57,1.08,1.01.44-.52,1.15-1.14,1.81-.87.28.11.47.32.56.6.18.57-.09,1.32-.36,1.83,1.15.23,2.15.62,2.98,1.15.86.55,1.56,1.28,2.09,2.16.91,1.52,1.36,3.53,1.36,6.16,0,.31,0,.63-.02.93-.04,1-.04,2.92.49,4.54.65,1.99,1.01,3.47,1.17,4.81,0,0,0,.01,0,.02.07.63.11,1.23.12,2.02h0v.04c0,.1,0,.2,0,.3v.04c0,1.34-.19,2.44-.57,3.35-.35.84-.8,1.82-1.58,2.74-.88,1.03-2.04,1.83-3.55,2.44-1.29.53-2.9.78-4.92.78Zm-11.69-9.31c0,.07.02.51.05,1.04.04.73.1,1.26.15,1.52.29,1.36.85,2.42,1.28,2.97.72.91,1.95,1.7,3.56,2.28,1.87.67,4.1,1.01,6.64,1.01,1.95,0,3.5-.24,4.74-.74,3.1-1.25,4.1-3.11,4.85-4.91.36-.85.53-1.88.53-3.16v-.04c0-.1,0-.2,0-.29h0v-.04c0-.77-.04-1.36-.12-1.97v-.02c-.16-1.31-.52-2.76-1.15-4.72-.55-1.69-.56-3.68-.51-4.71.01-.3.02-.6.02-.91,0-5.44-2.02-8.32-6.37-9.06l-.37-.06.21-.31c.34-.52.62-1.3.49-1.73-.04-.14-.13-.24-.27-.3-.39-.16-.98.37-1.41.92-.08.1-.21.15-.33.13-.13-.02-.23-.11-.27-.24-.11-.37-.47-.83-.83-.92-.17-.05-.32,0-.46.13-.44.41-.23.86.12,1.44.09.15.18.3.23.44l.12.32-.34.02c-3.6.16-6.23,1.69-7.41,4.3,0,0,0,.01,0,.02-.53,1.3-.79,2.91-.79,4.92,0,.53.02,1.03.05,1.49.09,1.16-.18,2.55-.79,4.13-1,2.58-1.47,4.62-1.62,7.05,0,.01,0,.02,0,.03Z"/>
            </g>
          </g>
        </g>
        <g id="Group_261" data-name="Group 261">
          <g id="Group_262" data-name="Group 262">
            <g id="Group_263" data-name="Group 263">
              <path id="Vector_88" data-name="Vector 88" class="cls-14" d="m26.42,12.83c.05-.12.13-.23.23-.33.09-.1.2-.18.32-.25.12-.07.25-.12.39-.15.04,0,.07-.01.11-.02.04,0,.07,0,.11,0,.07,0,.15,0,.22,0,.15.02.29.07.42.14.13.07.24.16.33.27.09.11.16.22.21.34.05.12.08.24.09.37,0,.09-.06.17-.15.18-.06,0-.11-.02-.14-.06h0c-.07-.1-.13-.18-.2-.25-.07-.07-.13-.14-.2-.19-.07-.05-.14-.1-.21-.13-.07-.03-.14-.05-.22-.06-.04,0-.08,0-.12,0-.02,0-.04,0-.06,0-.02,0-.04,0-.06,0-.08.01-.16.03-.25.07-.08.03-.16.07-.24.12-.08.05-.15.11-.22.17h-.01c-.08.09-.22.08-.29,0-.06-.06-.07-.15-.04-.22Z"/>
            </g>
          </g>
        </g>
        <g id="Group_264" data-name="Group 264">
          <g id="Group_265" data-name="Group 265">
            <g id="Group_266" data-name="Group 266">
              <path id="Vector_89" data-name="Vector 89" class="cls-14" d="m20.97,13.07c-.07-.06-.14-.12-.22-.17-.08-.05-.15-.09-.23-.12-.16-.07-.33-.1-.48-.09-.08,0-.15.02-.22.04-.07.02-.14.05-.21.1-.07.04-.14.09-.21.16-.07.06-.13.13-.21.21h0c-.06.08-.17.08-.24.01-.04-.04-.06-.09-.05-.15.02-.12.06-.24.11-.36.01-.03.03-.06.05-.09.02-.03.04-.05.05-.08.04-.05.08-.1.13-.15.1-.1.22-.17.35-.23.13-.05.27-.08.41-.09.14,0,.28.01.41.05.13.04.25.09.36.16s.21.15.3.24c.09.09.16.2.22.32.05.1,0,.23-.1.27-.08.04-.16.02-.22-.03h0Z"/>
            </g>
          </g>
        </g>
        <g id="Group_267" data-name="Group 267">
          <g id="Group_268" data-name="Group 268">
            <g id="Group_269" data-name="Group 269">
              <path id="Vector_90" data-name="Vector 90" class="cls-17" d="m6.14,21.28s.07.08.1.11c1.37,1.54,3.34,2.81,5.46,3.02.03,0,.06,0,.09,0,0,0,.01,0,.02,0l1.01-3.95.02-.1s-1.59-.66-4.58-1.46c-.36-.1-.69-.15-.97-.15-.15,0-.28,0-.41.02-1.39.17-1.66,1.45-.75,2.51Z"/>
            </g>
          </g>
        </g>
        <g id="Group_270" data-name="Group 270" class="cls-6">
          <g id="Group_271" data-name="Group 271" class="cls-6">
            <g id="Group_272" data-name="Group 272" class="cls-6">
              <path id="Vector_91" data-name="Vector 91" class="cls-9" d="m7.31,18.76c.28.25.84.65,1.82,1.07,1.15.49,2.79.61,3.7.64l.02-.1s-1.59-.66-4.58-1.46c-.36-.1-.68-.15-.97-.15Z"/>
            </g>
          </g>
        </g>
        <g id="Group_273" data-name="Group 273" class="cls-4">
          <g id="Group_274" data-name="Group 274" class="cls-4">
            <g id="Group_275" data-name="Group 275" class="cls-4">
              <path id="Vector_92" data-name="Vector 92" class="cls-13" d="m6.14,21.28s.07.08.1.11c1.37,1.54,3.34,2.81,5.46,3.02.03,0,.06,0,.09,0-.76-.35-4.35-2.11-4.95-3.96-.33-1-.19-1.47.05-1.68-1.4.17-1.66,1.45-.75,2.5Z"/>
            </g>
          </g>
        </g>
        <g id="Group_276" data-name="Group 276">
          <g id="Group_277" data-name="Group 277">
            <g id="Group_278" data-name="Group 278">
              <path id="Vector_93" data-name="Vector 93" class="cls-14" d="m11.82,24.66h-.02s-.08,0-.12,0c-1.05-.1-2.09-.45-3.12-1.04-.91-.53-1.78-1.24-2.51-2.06-.03-.04-.07-.07-.1-.12-.62-.71-.76-1.57-.38-2.18.21-.34.57-.58,1.03-.68.49-.11,1.07-.08,1.73.1,2.96.79,4.59,1.46,4.61,1.47.13.05.18.2.13.32-.05.13-.2.18-.32.13-.02,0-1.61-.67-4.55-1.45-1.07-.29-1.9-.15-2.22.37-.27.43-.13,1.05.34,1.6.04.04.07.08.1.11h0c1.5,1.69,3.44,2.76,5.31,2.94.03,0,.07,0,.1,0,.13,0,.24.13.23.26-.01.13-.12.23-.25.23Z"/>
            </g>
          </g>
        </g>
        <g id="Group_279" data-name="Group 279">
          <g id="Group_280" data-name="Group 280">
            <g id="Group_281" data-name="Group 281">
              <path id="Vector_94" data-name="Vector 94" class="cls-14" d="m25.47,14.47s-.09.56-.33,1.05c-.19.38-.48.72-.9.72-.48,0-.8-.34-1.01-.75-.32-.61-.4-1.36-.4-1.36l2.65.33Z"/>
            </g>
          </g>
        </g>
        <g id="Group_282" data-name="Group 282">
          <g id="Group_283" data-name="Group 283">
            <g id="Group_284" data-name="Group 284">
              <path id="Vector_95" data-name="Vector 95" class="cls-18" d="m25.13,15.52c-.19.38-.48.72-.9.72-.48,0-.8-.34-1.01-.75.25-.16.58-.26.94-.26s.72.11.97.29Z"/>
            </g>
          </g>
        </g>
        <g id="Group_285" data-name="Group 285">
          <g id="Group_286" data-name="Group 286">
            <g id="Group_287" data-name="Group 287">
              <path id="Vector_96" data-name="Vector 96" class="cls-14" d="m24.23,16.49c-1.39,0-1.64-2.23-1.66-2.33l.49-.05s.06.51.25,1c.23.59.54.89.92.89.36,0,.6-.4.75-.73.18-.41.24-.83.24-.84l.48.08s-.08.48-.27.95c-.37.86-.85,1.04-1.2,1.04Z"/>
            </g>
          </g>
        </g>
        <g id="Group_288" data-name="Group 288">
          <g id="Group_289" data-name="Group 289">
            <g id="Group_290" data-name="Group 290">
              <path id="Vector_97" data-name="Vector 97" class="cls-15" d="m26.18,13.99v.03c-.02.13-1.45.31-2.14.39-.62.07-1.34-.3-1.47-.37-.02,0-.02-.01-.02-.01,0,0,.5-.96,1.47-1.07.94-.11,2.14.68,2.16,1.04Z"/>
            </g>
          </g>
        </g>
        <g id="Group_291" data-name="Group 291" class="cls-6">
          <g id="Group_292" data-name="Group 292" class="cls-6">
            <g id="Group_293" data-name="Group 293" class="cls-6">
              <path id="Vector_98" data-name="Vector 98" class="cls-12" d="m26.18,13.99v.03c-.02.13-1.45.31-2.14.39-.62.07-1.34-.3-1.47-.37.36-.06,1.21-.2,2.11-.17.66.01,1.17.08,1.5.13Z"/>
            </g>
          </g>
        </g>
        <g id="Group_294" data-name="Group 294">
          <g id="Group_295" data-name="Group 295">
            <g id="Group_296" data-name="Group 296">
              <path id="Vector_99" data-name="Vector 99" class="cls-14" d="m24.24,14.74c-.07,0-.13,0-.2,0-.76-.02-1.32-.28-1.52-.38-.02,0-.03-.01-.04-.02-.07-.03-.12-.09-.15-.16-.02-.07-.02-.15.01-.22,0-.01.01-.02.02-.04.07-.14.2-.43.45-.7.32-.35.72-.54,1.18-.58.56-.05,1.12.09,1.58.37.43.27.73.64.84,1.03.02.09,0,.18-.06.25-.1.13-.36.24-.77.32-.28.06-.73.12-1.35.12Zm-1.36-.75c.24.1.65.25,1.17.26.98.02,1.6-.12,1.84-.22-.22-.46-.91-.98-1.85-.9-.67.05-1,.56-1.16.86Z"/>
            </g>
          </g>
        </g>
        <g id="Group_297" data-name="Group 297">
          <g id="Group_298" data-name="Group 298">
            <g id="Group_299" data-name="Group 299">
              <path id="Vector_100" data-name="Vector 100" class="cls-16" d="m28.74,21.21c-.21.05-.42.09-.64.13-.67.12-1.52.22-2.45.29-2.54.19-5.73.17-7.85-.29-2.9-.62-6.01-.98-6.05-1.62-.03-.52.36-1.05.47-1.75.02-.15.03-.3.02-.47-.03-.55-.04-1.16.07-1.59.08-.3.21-.52.44-.58,0,0,5.48,2.71,12.35,2.06.17-.02.34-.03.51-.05,1.02-.12,1.86-.24,2.54-.37,3.5-.63,2.97-1.23,2.97-1.23l.02-.76s.45.05.74.58c.03.06.04.24.04.49,0,.6-.04,1.6.08,2.31.04.26.11.48.21.62.45.63-1.27,1.72-3.47,2.23Z"/>
            </g>
          </g>
          <g id="Group_300" data-name="Group 300">
            <g id="Group_301" data-name="Group 301">
              <path id="Vector_101" data-name="Vector 101" class="cls-14" d="m22.59,21.78c-1.69,0-3.45-.11-4.81-.4-.77-.16-1.54-.31-2.28-.45-1.01-.19-1.96-.37-2.64-.55-.79-.21-1.14-.41-1.16-.65-.02-.29.1-.59.22-.91.1-.27.21-.54.25-.85.02-.16.03-.31.02-.46-.03-.5-.05-1.14.07-1.6.09-.35.25-.55.47-.61h.02s.01,0,.01,0c.01,0,1.39.68,3.59,1.27,2.03.54,5.19,1.12,8.73.79.19-.02.35-.04.51-.05.96-.11,1.81-.24,2.54-.36,2.49-.45,2.89-.88,2.96-1.04.03-.07,0-.12,0-.12h-.01v-.03l.02-.81h.05s.48.06.77.61c.03.06.05.21.05.51,0,.13,0,.28,0,.44,0,.58-.01,1.31.08,1.86.05.27.12.48.21.6.09.13.1.27.04.43-.25.65-1.77,1.46-3.54,1.87-.21.05-.42.09-.64.13-.67.12-1.52.22-2.46.29-.92.07-1.98.11-3.06.11Zm-9.85-6.4c-.18.06-.32.24-.39.55-.12.46-.09,1.12-.07,1.58,0,.16,0,.32-.02.48-.05.32-.16.6-.26.87-.12.32-.23.59-.21.87.02.43,1.82.77,3.73,1.13.75.14,1.52.28,2.29.45,2.22.48,5.51.46,7.84.29.93-.07,1.78-.17,2.45-.29.21-.04.43-.08.63-.13.86-.2,1.68-.5,2.33-.84.63-.33,1.04-.68,1.15-.98.05-.13.04-.25-.03-.35-.1-.14-.17-.35-.22-.64-.1-.56-.09-1.29-.08-1.88,0-.16,0-.31,0-.44,0-.11,0-.4-.04-.47-.22-.41-.54-.52-.66-.55l-.02.7s.05.09.01.18c-.1.27-.7.69-3.02,1.1-.73.13-1.58.25-2.54.37-.15.02-.32.04-.51.05-1.57.15-3.2.13-4.84-.05-1.31-.15-2.63-.39-3.93-.74-2.09-.55-3.44-1.19-3.59-1.27Z"/>
            </g>
          </g>
        </g>
        <g id="Group_302" data-name="Group 302" class="cls-6">
          <g id="Group_303" data-name="Group 303" class="cls-6">
            <g id="Group_304" data-name="Group 304" class="cls-6">
              <path id="Vector_102" data-name="Vector 102" class="cls-11" d="m26.33,21.57c.16-.02.32-.03.47-.05-.15.02-.31.03-.47.05Z"/>
            </g>
          </g>
          <g id="Group_305" data-name="Group 305" class="cls-6">
            <g id="Group_306" data-name="Group 306" class="cls-6">
              <path id="Vector_103" data-name="Vector 103" class="cls-12" d="m26.33,21.61v-.09c.15-.02.31-.03.46-.05v.08c-.14.02-.3.03-.46.05Z"/>
            </g>
          </g>
        </g>
        <g id="Group_307" data-name="Group 307" class="cls-6">
          <g id="Group_308" data-name="Group 308" class="cls-6">
            <g id="Group_309" data-name="Group 309" class="cls-6">
              <path id="Vector_104" data-name="Vector 104" class="cls-11" d="m27.27,21.46c.15-.02.29-.04.42-.06-.14.02-.28.04-.42.06Z"/>
            </g>
          </g>
          <g id="Group_310" data-name="Group 310" class="cls-6">
            <g id="Group_311" data-name="Group 311" class="cls-6">
              <path id="Vector_105" data-name="Vector 105" class="cls-12" d="m27.28,21.5v-.08c.16-.02.29-.04.41-.06v.09c-.11.02-.25.04-.41.06Z"/>
            </g>
          </g>
        </g>
        <g id="Group_312" data-name="Group 312" class="cls-6">
          <g id="Group_313" data-name="Group 313" class="cls-6">
            <g id="Group_314" data-name="Group 314" class="cls-6">
              <path id="Vector_106" data-name="Vector 106" class="cls-11" d="m27.97,21.36c-.09.01-.18.03-.27.04.09-.02.18-.03.27-.04Z"/>
            </g>
          </g>
          <g id="Group_315" data-name="Group 315" class="cls-6">
            <g id="Group_316" data-name="Group 316" class="cls-6">
              <path id="Vector_107" data-name="Vector 107" class="cls-12" d="m27.71,21.44v-.09s.04,0,.04,0c.07-.01.14-.02.21-.03v.08c-.09.02-.17.03-.25.04Z"/>
            </g>
          </g>
        </g>
        <g id="Group_317" data-name="Group 317" class="cls-2">
          <g id="Group_318" data-name="Group 318" class="cls-2">
            <g id="Group_319" data-name="Group 319" class="cls-2">
              <path id="Vector_108" data-name="Vector 108" class="cls-3" d="m31.92,16.05c-.76,1.41-5.77,2.56-11.94,1.83-5.01-.59-6.94-1.47-7.66-1.97.08-.3.21-.52.44-.58,0,0,5.75,2.84,12.85,2.01,6.27-.74,5.51-1.6,5.51-1.6l.02-.76s.45.05.74.58c.04.06.04.24.05.49Z"/>
            </g>
          </g>
        </g>
        <g id="Group_320" data-name="Group 320" class="cls-4">
          <g id="Group_321" data-name="Group 321" class="cls-4">
            <g id="Group_322" data-name="Group 322" class="cls-4">
              <path id="Vector_109" data-name="Vector 109" class="cls-13" d="m28.74,21.21c-.07.02-.15.03-.22.05-.06.01-.13.03-.19.04-.07.01-.15.03-.22.04-.04,0-.09.01-.13.02-.09.01-.18.03-.27.04h0c-.14.02-.28.04-.42.06,0,0-.01,0-.02,0-.09.01-.19.02-.29.04-.06,0-.11.01-.17.02-.15.02-.31.03-.47.05-.22.02-.45.04-.68.06-2.54.19-5.73.17-7.85-.29-2.9-.62-6.01-.98-6.05-1.62-.03-.52.25-.73.36-1.43.19.28.65.52,1.27.78,1.84.79,7.51,1.74,11.76,1.33h0c.26-.02.46-.24.48-.5.02-.23.04-.45.08-.65.28-1.36.19-1.72-.6-1.7-.16,0-.14-.06,0-.16.17-.02.34-.03.51-.05,1.02-.12,1.86-.24,2.54-.37l.23,1.2.21,1.76.16,1.28Z"/>
            </g>
          </g>
        </g>
        <g id="Group_323" data-name="Group 323" class="cls-4">
          <g id="Group_324" data-name="Group 324" class="cls-4">
            <g id="Group_325" data-name="Group 325" class="cls-4">
              <path id="Vector_110" data-name="Vector 110" class="cls-13" d="m28.74,21.21l-.15-1.28c1.7-.34,2.89-.81,3.41-1.58.04.26.11.48.21.62.45.63-1.27,1.72-3.47,2.23Z"/>
            </g>
          </g>
        </g>
        <g id="Group_326" data-name="Group 326">
          <g id="Group_327" data-name="Group 327">
            <g id="Group_328" data-name="Group 328">
              <path id="Vector_111" data-name="Vector 111" class="cls-14" d="m22.6,21.98c-1.92,0-3.64-.14-4.86-.41-.88-.19-1.77-.34-2.64-.49-.95-.16-1.84-.32-2.48-.49-.62-.16-1.2-.37-1.2-.8,0-.65.18-1.03.35-1.36.14-.3.26-.53.23-.92-.06-1.09-.03-2.23.69-2.42l.09-.02.08.04s1.45.71,3.73,1.3c2.1.55,5.36,1.11,8.99.68,2.01-.24,3.49-.51,4.42-.81.64-.21.84-.38.89-.44v-.02s.01-1.12.01-1.12l.26.03s.59.07.93.71c.08.15.08.41.07,1.05,0,.73-.02,1.96.25,2.34.13.19.15.41.06.64-.21.51-.95.95-1.53,1.23-.81.39-1.8.7-2.8.87-1.31.23-3.19.38-5.04.4-.16,0-.33,0-.5,0Zm-10.69-2.2s.07.07.25.15c.17.07.41.15.72.22.61.15,1.43.29,2.3.44.83.14,1.77.3,2.66.5,2.94.63,7.9.4,10.21,0,.95-.17,1.9-.46,2.67-.83.69-.33,1.17-.7,1.29-.98.04-.09.02-.13,0-.17-.33-.47-.35-1.47-.34-2.63,0-.32,0-.72-.02-.82-.08-.16-.19-.26-.28-.32v.35c.02.08.03.19-.01.31-.11.29-.5.53-1.23.77-.96.31-2.47.58-4.49.82-1.64.19-3.34.21-5.06.04-1.37-.13-2.76-.38-4.12-.74-2-.52-3.34-1.11-3.71-1.28-.13.09-.2.35-.23.56-.07.42-.05.96-.02,1.33.03.52-.13.85-.28,1.17-.15.31-.29.6-.29,1.13Z"/>
            </g>
          </g>
        </g>
        <g id="Group_329" data-name="Group 329">
          <g id="Group_330" data-name="Group 330">
            <g id="Group_331" data-name="Group 331">
              <path id="Vector_112" data-name="Vector 112" class="cls-16" d="m30.75,27.09s-.01.02-.02.03c-.28.43-1.91.76-2.92.61-.26-.04-.48-.11-.63-.22-.72-.54.11-2.08-.25-3.42-.08-.31-.17-.57-.26-.81-.28-.78-.54-1.36-.59-3.12-.04-1.39.51-2.23.15-2.65-.04-.04-.09-.07-.15-.1-.34-.13-.97-.01-.88-.13.71-.93,1.25-.72,1.53-.7.58.04.77.08,1.62-.25.49-.19,1.12-.07,1.31.41.01.03.02.07.03.1.29,1.12.27,2.19.25,3.17-.02,1-.03,1.91.29,2.69.03.06.05.13.09.19.04.08.08.17.12.25.65,1.54.56,3.41.29,3.94Z"/>
            </g>
          </g>
        </g>
        <g id="Group_332" data-name="Group 332" class="cls-4">
          <g id="Group_333" data-name="Group 333" class="cls-4">
            <g id="Group_334" data-name="Group 334" class="cls-4">
              <path id="Vector_113" data-name="Vector 113" class="cls-13" d="m30.75,27.09s-.01.02-.02.03c-.52.19-1.14.41-1.21.42-.07.01-.98.12-1.71.19-.26-.04-.48-.11-.63-.22-.72-.54.12-2.08-.25-3.42-.09-.31-.17-.57-.26-.81.07-.17.12-.28.12-.28,0,0,.63.73.73,2.19.1,1.45,2.65,1.04,2.98.25.17-.41-.15-2.14-.41-2.73-.08-.18,0-.13.15.01.03.06.05.13.08.19.78,1.57.69,3.63.41,4.19Z"/>
            </g>
          </g>
        </g>
        <g id="Group_335" data-name="Group 335" class="cls-2">
          <g id="Group_336" data-name="Group 336" class="cls-2">
            <g id="Group_337" data-name="Group 337" class="cls-2">
              <path id="Vector_114" data-name="Vector 114" class="cls-3" d="m29.76,16.95c-.64-.61-2.08.38-2.84.17-.5-.14-.72.09-.82.28-.34-.13-.97-.01-.88-.13.71-.93,1.25-.72,1.53-.7.58.04.77.08,1.62-.25.49-.19,1.2.14,1.39.62Z"/>
            </g>
          </g>
        </g>
        <g id="Group_338" data-name="Group 338">
          <g id="Group_339" data-name="Group 339">
            <g id="Group_340" data-name="Group 340">
              <path id="Vector_115" data-name="Vector 115" class="cls-14" d="m28.37,28.01s-.07,0-.1,0c-.56-.01-.97-.12-1.23-.31-.51-.38-.42-1.08-.33-1.83.07-.55.15-1.17,0-1.73-.1-.37-.21-.67-.31-.95-.25-.7-.5-1.36-.55-3.04-.02-.67.09-1.21.18-1.64.08-.41.15-.73.03-.86,0,0-.04-.04-.19-.06-.12-.02-.26-.02-.38-.02-.24,0-.42,0-.5-.17-.04-.09-.03-.2.03-.28.72-.94,1.33-.85,1.66-.81.04,0,.07,0,.09.01h.08c.49.04.68.06,1.44-.23.39-.15.93-.11,1.34.11.3.16.5.38.57.66.3,1.19.22,2.29.14,3.27-.08,1.02-.15,1.9.22,2.65.36.72.58,1.63.63,2.57.04.77-.05,1.5-.22,1.84-.17.34-.76.54-1.23.65-.43.1-.93.16-1.36.16Zm-1.93-10.66c.27.32.18.74.07,1.28-.08.41-.19.92-.17,1.53.05,1.6.26,2.19.52,2.88.11.29.22.59.32.99.18.65.09,1.32.02,1.92-.08.62-.14,1.16.14,1.37.33.25,1.36.28,2.29.06.65-.15.87-.33.9-.39.11-.22.21-.81.17-1.59-.05-.87-.25-1.72-.58-2.38-.43-.87-.35-1.86-.27-2.91.08-.98.16-2-.13-3.11-.04-.17-.2-.28-.32-.34-.29-.15-.68-.18-.94-.08-.86.33-1.11.31-1.65.27h-.08s-.08-.01-.12-.02c-.22-.03-.51-.07-.9.29.27,0,.56.05.72.24Z"/>
            </g>
          </g>
        </g>
        <g id="Group_341" data-name="Group 341">
          <g id="Group_342" data-name="Group 342">
            <g id="Group_343" data-name="Group 343">
              <path id="Vector_116" data-name="Vector 116" class="cls-16" d="m30.91,8.99c-4.2.74-9.5.8-13.26.72h-.04c-.2,0-.39,0-.58-.01-.12,0-1.32,4.7-1.43,4.69-3.4-.14-2.72-4.88-2.72-4.88,0,0,0-.21,0-.56,0-.92.1-2.81.66-4.54.42-1.32,1.12-2.53,2.25-3.14,1.44-.77,4.35-1.03,6.98-1.09,2.75-.07,4.82.36,6.15,1.22.46.3.82.73,1.1,1.24,1.29,2.35.91,6.35.91,6.35Z"/>
            </g>
          </g>
        </g>
        <g id="Group_344" data-name="Group 344" class="cls-6">
          <g id="Group_345" data-name="Group 345" class="cls-6">
            <g id="Group_346" data-name="Group 346" class="cls-6">
              <path id="Vector_117" data-name="Vector 117" class="cls-9" d="m30,2.65c-.23.26-2.64-1.49-5.05-1.57-6.47-.22-8.99.84-11.43,3.35.42-1.32,1.12-2.53,2.25-3.14,1.44-.77,4.35-1.03,6.98-1.09,2.76-.07,4.82.36,6.15,1.22.46.3.82.73,1.1,1.24Z"/>
            </g>
          </g>
        </g>
        <g id="Group_347" data-name="Group 347" class="cls-4">
          <g id="Group_348" data-name="Group 348" class="cls-4">
            <g id="Group_349" data-name="Group 349" class="cls-4">
              <path id="Vector_118" data-name="Vector 118" class="cls-13" d="m17.6,9.71c-.2,0-.39,0-.58-.01-.12,0-1.32,4.7-1.43,4.69-3.4-.14-2.72-4.88-2.72-4.88,0,0,0-.21,0-.56.11.88.38,1.55.97,1.58,1.34.05,3.15-4.2,3.15-4.2l.62,3.38Z"/>
            </g>
          </g>
        </g>
        <g id="Group_350" data-name="Group 350">
          <g id="Group_351" data-name="Group 351">
            <g id="Group_352" data-name="Group 352">
              <path id="Vector_119" data-name="Vector 119" class="cls-14" d="m12.51,10.88s-.02-2,.35-4.18c.22-1.28.53-2.39.92-3.27.5-1.14,1.15-1.93,1.92-2.35.69-.38,1.75-.67,3.16-.85C20.01.08,21.4,0,22.88,0c1.9,0,4.58.42,6.41,1.61.97.63,1.55,2.11,1.73,4.39.13,1.66,0,3.12-.02,3.18l-.49-.05s.14-1.48.01-3.1c-.16-2.09-.68-3.47-1.51-4.01-1.74-1.14-4.31-1.53-6.14-1.53-1.92,0-5.36.14-6.94,1.02-.67.37-1.25,1.09-1.71,2.12-.38.85-.68,1.91-.89,3.15-.36,2.13-.35,4.08-.35,4.1h-.49Z"/>
            </g>
          </g>
        </g>
        <g id="Group_353" data-name="Group 353">
          <g id="Group_354" data-name="Group 354">
            <g id="Group_355" data-name="Group 355">
              <path id="Vector_120" data-name="Vector 120" class="cls-14" d="m18.01,10c-.49-.02-.86-.16-1.09-.43-.25-.29-.35-.73-.28-1.32.02-.23.07-.46.11-.7.1-.56.22-1.2.18-2.15l.49-.02c.04,1.01-.08,1.67-.19,2.26-.04.23-.08.45-.11.67-.05.45,0,.76.16.95.14.16.38.25.73.26v.49Z"/>
            </g>
          </g>
        </g>
        <g id="Group_356" data-name="Group 356">
          <g id="Group_357" data-name="Group 357">
            <g id="Group_358" data-name="Group 358">
              <path id="Vector_121" data-name="Vector 121" class="cls-8" d="m16.93,9.56s.75,4.57-.95,5.82c-1.25.92-3.73.49-3.67-2.25.04-1.55.27-2.44.44-2.78,0,0,.16,3.74,1.53,3.3,1.85-.59.46-3.32,1.09-4.51.63-1.19,1.46.07,1.56.43Z"/>
            </g>
          </g>
        </g>
        <g id="Group_359" data-name="Group 359" class="cls-4">
          <g id="Group_360" data-name="Group 360" class="cls-4">
            <g id="Group_361" data-name="Group 361" class="cls-4">
              <path id="Vector_122" data-name="Vector 122" class="cls-13" d="m15.98,15.38c-1.19.87-3.5.53-3.66-1.87.68,1.45,2.47,1.61,3.4.81,1.19-1.03.55-4.72.35-5.68.43.08.8.69.86.92,0,0,.75,4.58-.95,5.82Z"/>
            </g>
          </g>
        </g>
        <g id="Group_362" data-name="Group 362">
          <g id="Group_363" data-name="Group 363">
            <g id="Group_364" data-name="Group 364">
              <path id="Vector_123" data-name="Vector 123" class="cls-14" d="m14.57,16.04c-.53,0-1.06-.13-1.52-.39-.91-.52-1.35-1.46-1.24-2.64.11-1.08.53-2.4.71-2.78l.49-.99-.02,1.1s-.02,1.24.18,2.18c.17.81.68.92,1.07.86.57-.08.61-.66.55-1.86-.04-.74-.07-1.5.21-2.05.4-.76.96-.77,1.25-.7.42.09.88.46.92.74.02.1.19,1.21.17,2.48-.03,1.8-.44,3.01-1.21,3.57-.42.31-.98.46-1.55.46Zm-2.01-4.32c-.11.43-.21.91-.25,1.34-.12,1.25.47,1.87.99,2.17.78.45,1.9.43,2.54-.04.63-.46.98-1.56,1.01-3.18.02-1.2-.14-2.28-.16-2.39-.05-.09-.34-.35-.64-.35-.24,0-.44.15-.61.46-.22.43-.19,1.12-.16,1.79.03.54.05,1.05-.04,1.47-.12.53-.43.84-.93.91-.38.05-.72-.02-1-.21-.31-.22-.52-.56-.62-1.04-.07-.3-.11-.62-.14-.92Z"/>
            </g>
          </g>
        </g>
        <g id="Group_365" data-name="Group 365">
          <g id="Group_366" data-name="Group 366">
            <g id="Group_367" data-name="Group 367">
              <path id="Vector_124" data-name="Vector 124" class="cls-8" d="m30.74,8.27c-.33.97-1.01,1.18-1.43,1.27-.42.09-10.17.25-11.22.21-1.05-.03-1.31-.61-1.21-1.48.07-.57.24-1.12.3-1.95.02-.28.02-.59,0-.94-.09-2.01-.33-2.54,1.21-3.16,3.41-1.38,10.33-.08,11,.3.47.26.82.79,1.07,1.43h0c.55,1.4.6,3.35.27,4.32Z"/>
            </g>
          </g>
        </g>
        <g id="Group_368" data-name="Group 368" class="cls-4">
          <g id="Group_369" data-name="Group 369" class="cls-4">
            <g id="Group_370" data-name="Group 370" class="cls-4">
              <path id="Vector_125" data-name="Vector 125" class="cls-13" d="m30.74,8.27c-.33.97-1.01,1.18-1.43,1.27-.42.09-10.17.25-11.22.21-1.05-.03-1.31-.61-1.21-1.48.07-.57.24-1.12.3-1.95.35,3.27,9.98,2.09,12.11,1.25,1.6-.63,1.43-2.52,1.18-3.62.55,1.4.6,3.35.27,4.32Z"/>
            </g>
          </g>
        </g>
        <g id="Group_371" data-name="Group 371">
          <g id="Group_372" data-name="Group 372">
            <g id="Group_373" data-name="Group 373">
              <path id="Vector_126" data-name="Vector 126" class="cls-16" d="m14.92,8.97l1.97-.06.21-2.69-2.02.85-.16,1.91Z"/>
            </g>
          </g>
        </g>
        <g id="Group_374" data-name="Group 374">
          <g id="Group_375" data-name="Group 375">
            <g id="Group_376" data-name="Group 376">
              <path id="Vector_127" data-name="Vector 127" class="cls-14" d="m14.8,9.27c-1.64,0-2.06-.28-2.14-.35l.33-.37s0,0-.01-.01c0,0,.17.12.76.19.77.09,1.85.07,3.23-.07l.05.49c-.91.09-1.63.12-2.21.12Z"/>
            </g>
          </g>
        </g>
        <g id="Group_377" data-name="Group 377">
          <g id="Group_378" data-name="Group 378">
            <g id="Group_379" data-name="Group 379">
              <path id="Vector_128" data-name="Vector 128" class="cls-14" d="m18.53,10c-.21,0-.37,0-.45,0-.54-.02-.92-.16-1.17-.45-.25-.29-.35-.72-.28-1.3.03-.23.07-.45.11-.69.1-.56.21-1.2.2-2.17,0-.11,0-.23-.01-.36-.02-.49-.04-1.11.12-1.68.2-.69.63-1.18,1.3-1.45,2.03-.82,5-.66,6.58-.49,2.09.22,4.16.71,4.71,1.1.85.61,1.36,1.58,1.5,2.89.13,1.14-.05,2.34-.13,2.91-.07.52-.29.9-.65,1.14-.29.2-.62.26-.86.31-.04,0-.09.02-.12.02-.44.1-8.7.22-10.87.22Zm3.91-8.25c-1.32,0-2.78.13-3.91.59-1.19.48-1.15,1.69-1.11,2.66,0,.13,0,.26.01.38,0,1.01-.11,1.67-.21,2.26-.04.23-.08.45-.1.66-.05.44,0,.74.16.92.15.18.42.27.81.28.98.03,10.72-.12,11.2-.21.04,0,.08-.02.13-.03.44-.08.99-.19,1.11-1.04.18-1.22.59-4.08-1.17-5.33-.37-.27-2.14-.77-4.48-1.01-.64-.07-1.51-.14-2.44-.14Z"/>
            </g>
          </g>
        </g>
        <g id="Group_380" data-name="Group 380">
          <g id="Group_381" data-name="Group 381">
            <g id="Group_382" data-name="Group 382">
              <path id="Vector_129" data-name="Vector 129" class="cls-14" d="m31.75,15.37l-.34-.35c1.84-1.77-.93-6.11-.96-6.15l.41-.27s.76,1.17,1.24,2.56c.29.83.43,1.57.42,2.22,0,.84-.27,1.51-.78,2Z"/>
            </g>
          </g>
        </g>
      </g>
    </g>
  </g>
</svg>